# xmcd
#
# Track frame offsets: 
#        150
#        20642
#        46583
#        65589
#        88309
#        104342
#        128565
#        146506
#        166214
#        199636
#        217415
#
# Disc length: 3196 seconds
#
# Revision: 1
# Processed by: cddbd v1.5.2PL0 Copyright (c) Steve Scherf et al.
# Submitted via: ExactAudioCopy v1.3
#
DISCID=9e0c7a0b
DTITLE=Zac Harmon - Right Man Right Now
DYEAR=2015
DGENRE=Blues
TTITLE0=Raising Hell
TTITLE1=Ball and Chain
TTITLE2=Hump in Your Back
TTITLE3=Stand Your Ground
TTITLE4=Right Man Right Now
TTITLE5=Feet Back on the Ground
TTITLE6=Long Live the Blues
TTITLE7=Back of the Yards
TTITLE8=Im Bad Like Jesse James
TTITLE9=Ain't No Big Deal On You
TTITLE10=Good thing Found
EXTD=
EXTT0=
EXTT1=
EXTT2=
EXTT3=
EXTT4=
EXTT5=
EXTT6=
EXTT7=
EXTT8=
EXTT9=
EXTT10=
PLAYORDER=
